Simulation
nRows=31
nColumns=15
endheader
time  TH_x TH_y TH_z SC_y  SC_z  SC_x  AC_y  AC_z  AC_x  GH_y  GH_z  GH_yy  EL_x  PS_y
0.0  0.000000  0.000000  0.000000  -25.166040539212762  -2.702950072254798  6.253781744875851  60.727749511212444  0.17578844300456845  -12.75011241288454  -3.8976709934707503  14.272475623401672  30.439425530970876  24.85147779077038  120.000000
0.027999999999999997  0.000000  0.000000  0.000000  -25.446824671963654  -2.6850715401942558  6.021558642659204  60.79172307070995  0.5869772984025656  -12.648230707615285  -6.341981561423338  14.458279084091505  32.8187770761812  24.527749423565794  120.000000
0.055999999999999994  0.000000  0.000000  0.000000  -25.729728798268475  -2.681427432791798  5.789718609642378  60.90221175049512  0.9433899860238739  -12.475915237869826  -8.246178328421518  14.664761693586255  34.690778661442174  24.248284654923307  120.000000
0.08399999999999999  0.000000  0.000000  0.000000  -26.000782270451158  -2.669467819912801  5.5615487617890595  61.055208286583415  1.239995206451426  -12.251810477722112  -9.657496307826426  14.883184359026968  36.087590426206  23.995005083047708  120.000000
0.11199999999999999  0.000000  0.000000  0.000000  -26.25785354793943  -2.634299117395289  5.340280051751816  61.236457156269985  1.4839898100358213  -11.988264649668375  -10.686911365829776  15.114278279817093  37.10201397470876  23.75429135397429  120.000000
0.13999999999999999  0.000000  0.000000  0.000000  -26.503537748954113  -2.5747828581319934  5.133348008861638  61.43085139379168  1.685779324333958  -11.696372664223336  -11.467020087403851  15.367852091303014  37.84583868071487  23.51237655221593  120.000000
0.16799999999999998  0.000000  0.000000  0.000000  -26.737876446503495  -2.489274607339012  4.945592279705736  61.63250192144601  1.8538025139684635  -11.386186483188233  -12.11058950390689  15.659507161474407  38.413365112771935  23.26439387864777  120.000000
0.19599999999999998  0.000000  0.000000  0.000000  -26.963711693492804  -2.3830947041016843  4.78191824474222  61.83967093382079  1.9956069737332838  -11.066927893362479  -12.716716318120172  16.00807900779899  38.885551788480605  23.0067077369072  120.000000
0.22399999999999998  0.000000  0.000000  0.000000  -27.18266669657616  -2.259202439991381  4.644968446208745  62.054664589477134  2.1168773244366457  -10.744106556082995  -13.3556045498318  16.431813259585947  39.31687781214408  22.740583648774745  120.000000
0.252  0.000000  0.000000  0.000000  -27.399391287770154  -2.1241617022918025  4.537187156863063  62.28111993142733  2.2234894493050934  -10.421567794124593  -14.0736411030085  16.947584626183595  39.73885047584795  22.467182017507433  120.000000
0.27999999999999997  0.000000  0.000000  0.000000  -27.61702166574483  -1.9805416677738177  4.459390671384346  62.52353160938175  2.3206598616162637  -10.100879249906237  -14.887700430214384  17.56760763846369  40.155250657513854  22.189943047285208  120.000000
0.30799999999999994  0.000000  0.000000  0.000000  -27.841704496389063  -1.8316303868543191  4.412352633079175  62.78511023574596  2.4146254246735075  -9.78323026318643  -15.794746203872512  18.29944716220723  40.55081720897606  21.91161070491471  120.000000
0.33599999999999997  0.000000  0.000000  0.000000  -28.07765758003498  -1.6771155549666237  4.396289936068981  63.06718971271449  2.5118323611700384  -9.469656885291863  -16.77537041104518  19.14407625442962  40.89530573113764  21.63567424060388  120.000000
0.364  0.000000  0.000000  0.000000  -28.33157423504944  -1.516083753969945  4.412084324664667  63.36876991243953  2.6197195567066833  -9.16183301017095  -17.80238502657962  20.097078789978326  41.15198974894627  21.364636457760646  120.000000
0.39199999999999996  0.000000  0.000000  0.000000  -28.607426819446182  -1.3453138957749928  4.460906593217419  63.686900426007604  2.7462130394799633  -8.862659635732498  -18.846721242799468  21.149295785938634  41.284178329281495  21.100433958564018  120.000000
0.41999999999999993  0.000000  0.000000  0.000000  -28.910122079969685  -1.1611158740262622  4.545375419063596  64.01728931407527  2.8994555378892817  -8.575633950877732  -19.881793024187978  22.28861339690048  41.26039765921441  20.842984970473125  120.000000
0.44799999999999995  0.000000  0.000000  0.000000  -29.24117280534448  -0.959731559338866  4.668337427532723  64.3551517751243  3.087453641949982  -8.304703226447856  -20.88566740057845  23.50159965080461  41.057593031606004  20.589735008814227  120.000000
0.476  0.000000  0.000000  0.000000  -29.600724089737895  -0.7382028846776598  4.833302118079983  64.69622755307597  3.3172256107126663  -8.053491412308041  -21.841829784998428  24.774516302013204  40.66331061133327  20.334603044043114  120.000000
0.504  0.000000  0.000000  0.000000  -29.986245226593322  -0.4953675447086969  5.042956148068554  65.03692393050532  3.5940974028810895  -7.824633434738809  -22.738595111507983  26.09408526419271  40.07608478115185  20.06835749614486  120.000000
0.5319999999999999  0.000000  0.000000  0.000000  -30.39378994325759  -0.2321632593507021  5.300125873893752  65.37399932365697  3.920549951295455  -7.619949202984877  -23.569420205880455  27.447989436808733  39.30663128150408  19.779495626949327  120.000000
0.5599999999999999  0.000000  0.000000  0.000000  -30.818230592166596  0.049976286689406006  5.607948222153824  65.7051347986373  4.295529714827344  -7.440146275105373  -24.328725958322476  28.825274628869114  38.374196187907245  19.456779184588534  120.000000
0.588  0.000000  0.000000  0.000000  -31.253950777889408  0.34872521081326563  5.968809730324326  66.02787033834956  4.715626924994416  -7.285080874913452  -25.013782868482487  30.2171876459678  37.30877975506845  19.090759866019294  120.000000
0.6159999999999999  0.000000  0.000000  0.000000  -31.695689963370473  0.6621386830586339  6.3835876671972605  66.33948601662799  5.175614204248732  -7.152390973022728  -25.622244916275672  31.61708617237966  36.14813082915055  18.676109766077104  120.000000
0.6439999999999999  0.000000  0.000000  0.000000  -32.138955175017394  0.9882365337497387  6.850518939328644  66.63658793256306  5.669578664441675  -7.038307351660117  -26.15347932731979  33.02138963660515  34.937828766705735  18.211836299336362  120.000000
0.6719999999999999  0.000000  0.000000  0.000000  -32.580145787199584  1.3257361973097554  7.3668109206373  66.91599667941117  6.1896949416817835  -6.9377273814094185  -26.606708530347486  34.42819676373321  33.72588920600608  17.70123657915056  120.000000
0.7  0.000000  0.000000  0.000000  -33.018081937595326  1.6732645080231419  7.92830377216347  67.17468348828248  6.727004912517386  -6.844917918155794  -26.981152694233906  35.83778780578124  32.559049953253734  17.150018702594366  120.000000
0.728  0.000000  0.000000  0.000000  -33.45257353275459  2.0297272299563875  8.530937510039697  67.41054675319715  7.271103557933694  -6.753784562307066  -27.275883037400888  37.25026251299585  31.47702113348743  16.565013934412825  120.000000
0.7559999999999999  0.000000  0.000000  0.000000  -33.8869520313198  2.3937531293560226  9.170052652121283  67.62300075157557  7.811632442100726  -6.658452455909964  -27.48954579116618  38.665666455637584  30.508469003862274  15.95278593033068  120.000000
0.7839999999999999  0.000000  0.000000  0.000000  -34.32438287336117  2.764146381661398  9.841571462974823  67.81278810738264  8.338262454864804  -6.5538170509118245  -27.622437809710096  40.08185649850222  29.66944785769801  15.319017046814198  120.000000
0.8119999999999999  0.000000  0.000000  0.000000  -34.77057115752424  3.1394181140523423  10.541502364695454  67.9821539915709  8.842188819480278  -6.435588870010857  -27.67625378995642  41.495213542390466  28.963477140433707  14.668598967447489  120.000000
0.8399999999999999  0.000000  0.000000  0.000000  -35.22867608224154  3.5183804014570987  11.266463613381786  68.13358983629635  9.315830089359435  -6.30070012682555  -27.656458728003575  42.899851823287754  28.385405856718762  14.006164602359858  120.000000
